<?xml version="1.0" standalone="no"?>
<!DOCTYPE svg PUBLIC "-//W3C//DTD SVG 20010904//EN"
 "http://www.w3.org/TR/2001/REC-SVG-20010904/DTD/svg10.dtd">
<svg version="1.0" xmlns="http://www.w3.org/2000/svg"
 width="700.000000pt" height="700.000000pt" viewBox="0 0 700.000000 700.000000"
 preserveAspectRatio="xMidYMid meet">
<metadata>
Created by potrace 1.14, written by Peter Selinger 2001-2017
</metadata>
<g transform="translate(0.000000,700.000000) scale(0.100000,-0.100000)"
fill="#000000" stroke="none">
<path d="M3407 6564 c-1 -1 -47 -5 -102 -8 -55 -3 -136 -11 -180 -17 -44 -6
-89 -12 -100 -14 -11 -1 -60 -10 -110 -20 -49 -9 -100 -19 -112 -21 -46 -9
-266 -75 -355 -108 -344 -125 -694 -333 -977 -581 -76 -67 -247 -244 -323
-334 -186 -223 -367 -520 -472 -774 -75 -182 -158 -453 -181 -587 -3 -19 -10
-60 -15 -90 -16 -99 -27 -184 -35 -290 -6 -73 -6 -383 0 -440 2 -25 7 -72 10
-105 9 -92 30 -229 40 -265 3 -8 7 -32 10 -52 3 -20 19 -85 36 -145 16 -59 31
-115 33 -123 15 -62 110 -300 165 -415 480 -1000 1483 -1673 2579 -1731 65 -3
132 -7 150 -8 l32 -2 0 111 c0 108 -1 111 -22 111 -56 1 -275 14 -294 18 -11
2 -46 7 -76 10 -248 27 -616 139 -871 268 -963 482 -1575 1462 -1579 2529 -2
468 100 902 309 1309 186 363 439 674 759 932 197 159 482 325 724 421 95 38
314 108 378 122 92 20 227 45 271 50 30 4 61 8 70 10 115 21 539 22 651 0 9
-2 41 -6 71 -10 385 -46 845 -220 1184 -449 577 -387 954 -927 1139 -1631 l21
-80 100 0 c55 -1 105 1 111 3 8 2 1 44 -22 135 -118 456 -296 814 -580 1167
-347 432 -828 760 -1391 949 -88 29 -229 68 -283 77 -14 3 -41 9 -60 14 -19 5
-55 12 -80 15 -24 4 -47 8 -50 10 -3 1 -36 6 -73 10 -37 3 -76 8 -87 10 -43 8
-406 25 -413 19z"/>
<path d="M1313 3829 l-1 -109 51 -1 c29 0 250 -1 492 -2 l440 -2 0 -873 0
-872 110 0 110 0 0 983 0 982 -601 1 -601 1 0 -108z"/>
<path d="M4269 3927 c-1 -7 -2 -450 -3 -985 l-1 -973 110 3 110 3 0 788 c0
433 0 787 1 787 1 0 196 -268 434 -595 239 -328 437 -594 441 -593 8 3 835
1136 858 1174 14 25 13 84 15 -796 l1 -765 108 -3 c81 -2 107 0 108 10 1 17 1
1907 0 1934 -1 20 -6 21 -109 21 l-108 0 -90 -129 c-49 -71 -107 -155 -130
-186 -22 -31 -71 -102 -110 -158 -279 -407 -538 -774 -544 -774 -5 0 -142 194
-307 430 -164 237 -318 459 -343 494 -25 35 -85 122 -135 193 l-90 130 -107 0
c-76 1 -108 -2 -109 -10z"/>
<path d="M3280 2735 l0 -765 110 0 110 0 0 765 0 765 -110 0 -109 0 -1 -765z"/>
</g>
</svg>
