<svg width="120" height="120" viewBox="0 0 120 120" fill="none" xmlns="http://www.w3.org/2000/svg">
    <path fill-rule="evenodd" clip-rule="evenodd" d="M60 11.25C33.0761 11.25 11.25 33.0761 11.25 60C11.25 86.9239 33.0761 108.75 60 108.75V112.5C31.005 112.5 7.5 88.995 7.5 60C7.5 31.6327 29.9985 8.52017 58.125 7.53286V7.5H60H61.875V7.53477C82.711 8.30581 104.914 21.901 110.583 48.3571L110.668 48.75H106.831C101.281 23.7632 79.7855 11.25 60 11.25Z" fill="#00B2F4"/>
    <path fill-rule="evenodd" clip-rule="evenodd" d="M22.5 52.5H24.375H41.25H43.125V54.375V84.375V86.25H39.375V84.375V56.25H24.375H22.5V52.5ZM60 60V61.875V84.375V86.25H56.25V84.375V61.875V60H60ZM106.875 52.5L91.875 74.0625L76.875 52.5H73.125V86.25H76.875V59.0625L91.875 79.6875L106.875 59.0625V86.2061H110.625V52.5H106.875Z" fill="black"/>
</svg>
